<svg height="512" viewBox="0 0 512 512" width="512" xmlns="http://www.w3.org/2000/svg"><g id="Fill_out_line" data-name="Fill out line"><circle cx="256" cy="224" fill="#8acce7" r="200"/><path d="m216.91153 280h78.17694a80 80 0 0 1 78.284 63.51916l18.62753 88.48084h-272l18.62755-88.48084a80 80 0 0 1 78.28398-63.51916z" fill="#e88604"/><path d="m368 233.37012a22.63583 22.63583 0 0 1 -22.62988 22.62988h-178.74024a22.62319 22.62319 0 0 1 -16-38.62988 59.37 59.37 0 0 0 17.37012-41.94019v-31.42993a88 88 0 0 1 176 0v31.42993a59.31917 59.31917 0 0 0 17.37012 41.94019 22.584 22.584 0 0 1 6.62988 16z" fill="#2f4054"/><path d="m312 200h16a24 24 0 0 0 24-24 24 24 0 0 0 -24-24h-10.80722a40.50283 40.50283 0 0 1 -38.42435-27.69471v-.00009c-7.29357-21.88071-38.24323-21.88071-45.5368 0v.00009a40.50283 40.50283 0 0 1 -38.42441 27.69471h-10.80722a24 24 0 0 0 -24 24 24 24 0 0 0 24 24z" fill="#f2c194"/><path d="m280 224v56a24 24 0 0 1 -48 0v-56z" fill="#f4ceaf"/><path d="m192 96h128a0 0 0 0 1 0 0v88.00006a63.99994 63.99994 0 0 1 -63.99994 63.99994h-.00013a63.99994 63.99994 0 0 1 -63.99993-63.99994v-88.00006a0 0 0 0 1 0 0z" fill="#f4ceaf"/><path d="m344 144v14.12012a23.89083 23.89083 0 0 0 -16-6.12012h-10.81006a40.50569 40.50569 0 0 1 -38.41994-27.68994 23.99791 23.99791 0 0 0 -45.54 0 40.51824 40.51824 0 0 1 -38.41994 27.68994h-10.81006a23.89083 23.89083 0 0 0 -16 6.12012v-14.12012a88 88 0 0 1 176 0z" fill="#2f4054"/><path d="m48 376h416v112h-416z" fill="#eedc9a"/><path d="m464 368h-416a8.00039 8.00039 0 0 0 -8 8v112a8.00039 8.00039 0 0 0 8 8h416a8.00039 8.00039 0 0 0 8-8v-112a8.00039 8.00039 0 0 0 -8-8zm-8 112h-400v-96h400z"/><path d="m85.072 462.641 13.856 8 13.072-22.642 13.072 22.642 13.856-8-13.072-22.641h26.144v-16h-26.144l13.072-22.641-13.856-8-13.072 22.642-13.072-22.642-13.856 8 13.072 22.641h-26.144v16h26.144z"/><path d="m181.072 462.641 13.856 8 13.072-22.642 13.072 22.642 13.856-8-13.072-22.641h26.144v-16h-26.144l13.072-22.641-13.856-8-13.072 22.642-13.072-22.642-13.856 8 13.072 22.641h-26.144v16h26.144z"/><path d="m277.072 462.641 13.856 8 13.072-22.642 13.072 22.642 13.856-8-13.072-22.641h26.144v-16h-26.144l13.072-22.641-13.856-8-13.072 22.642-13.072-22.642-13.856 8 13.072 22.641h-26.144v16h26.144z"/><path d="m373.072 462.641 13.856 8 13.072-22.642 13.072 22.642 13.856-8-13.072-22.641h26.144v-16h-26.144l13.072-22.641-13.856-8-13.072 22.642-13.072-22.642-13.856 8 13.072 22.641h-26.144v16h26.144z"/><circle cx="232" cy="176" r="8"/><circle cx="280" cy="176" r="8"/><path d="m248 160a8.00039 8.00039 0 0 0 -8-8h-16a8 8 0 0 0 0 16h16a8.00039 8.00039 0 0 0 8-8z"/><path d="m288 152h-16a8 8 0 0 0 0 16h16a8 8 0 0 0 0-16z"/><path d="m268.42188 208.84473a27.9117 27.9117 0 0 1 -24.84376 0 8.00005 8.00005 0 1 0 -7.15624 14.31054 43.98338 43.98338 0 0 0 39.15624 0 8.00005 8.00005 0 1 0 -7.15624-14.31054z"/><path d="m244.42188 199.15527a7.99449 7.99449 0 0 0 10.73339-3.57715l8-16a8.00005 8.00005 0 1 0 -14.31054-7.15624l-8 16a8.00074 8.00074 0 0 0 3.57715 10.73339z"/><path d="m216.91113 272a87.99853 87.99853 0 0 0 -86.11133 69.87109l-1.78613 8.48047 15.65625 3.29688 1.78613-8.48047a72.32394 72.32394 0 0 1 70.45508-57.16797h8.10157a32.00443 32.00443 0 0 0 61.9746 0h8.10157a72.32394 72.32394 0 0 1 70.45513 57.168l1.78613 8.48047 15.65625-3.29688-1.78613-8.48047a87.99853 87.99853 0 0 0 -86.11138-69.87112h-7.08887v-8h57.37012a30.6241 30.6241 0 0 0 21.65722-52.28711 51.47155 51.47155 0 0 1 -11.91894-18.7395 31.90282 31.90282 0 0 0 -3.1084-38.10523v-10.86816a96 96 0 0 0 -192 0v10.86816a31.90287 31.90287 0 0 0 -3.11011 38.10254c-.25708.70362-.51367 1.40772-.802 2.10059a50.97538 50.97538 0 0 1 -11.11523 16.6416 30.62794 30.62794 0 0 0 21.65722 52.28711h57.37012v8zm60.0918-36.07715a7.99992 7.99992 0 0 0 -5.00293 7.41699v36.66016a16 16 0 0 1 -32 0v-36.66016a7.99992 7.99992 0 0 0 -5.00293-7.417 55.754 55.754 0 0 1 -34.99707-51.92284v-24.28442a48.42977 48.42977 0 0 0 40.82129-32.87964 15.99988 15.99988 0 0 1 30.35742-.001 48.4293 48.4293 0 0 0 40.82129 32.88064v24.28442a55.754 55.754 0 0 1 -34.99707 51.92285zm-92.56152-43.92285h-.44141a16 16 0 0 1 0-32v24a73.2895 73.2895 0 0 0 .44141 8zm159.55859-16a16.01833 16.01833 0 0 1 -16 16h-.44141a73.2895 73.2895 0 0 0 .44141-8v-24a16.01833 16.01833 0 0 1 16 16zm14.88281 51.75684a14.66594 14.66594 0 0 1 1.11719 5.61328 14.63711 14.63711 0 0 1 -14.62988 14.62988h-56.37256a71.54191 71.54191 0 0 0 34.92529-40h4.07715a31.79081 31.79081 0 0 0 14.59741-3.53809 67.44381 67.44381 0 0 0 13.11548 18.56543 14.6319 14.6319 0 0 1 3.16992 4.7295zm-102.88281-163.75684a80.02064 80.02064 0 0 1 80 80v1.0127a31.95275 31.95275 0 0 0 -8-1.0127h-10.80762a32.45977 32.45977 0 0 1 -30.834-22.22461 32.0009 32.0009 0 0 0 -60.7168.001 32.46017 32.46017 0 0 1 -30.83396 22.22361h-10.80762a31.95275 31.95275 0 0 0 -8 1.0127v-1.0127a80.09041 80.09041 0 0 1 80-80zm-104 169.37012a14.574 14.574 0 0 1 4.28711-10.34278 66.86819 66.86819 0 0 0 13.12158-18.56225 31.794 31.794 0 0 0 14.59131 3.53491h4.07715a71.54191 71.54191 0 0 0 34.92529 40h-56.37256a14.64589 14.64589 0 0 1 -14.62988-14.62988z"/><path d="m108.46289 346.877a192.20741 192.20741 0 0 1 -44.46289-122.877c0-105.86914 86.13086-192 192-192s192 86.13086 192 192a192.20741 192.20741 0 0 1 -44.46289 122.877l12.28906 10.2461a208.23914 208.23914 0 0 0 48.17383-133.1231c0-114.69141-93.30859-208-208-208s-208 93.30859-208 208a208.23914 208.23914 0 0 0 48.17383 133.123z"/></g></svg>