<svg height="512" viewBox="0 0 55 60" width="512" xmlns="http://www.w3.org/2000/svg"><g id="Page-1" fill="none" fill-rule="evenodd"><g id="026---Edit-File" fill-rule="nonzero"><g id="Icons" transform="translate(1 1)"><path id="Shape" d="m5 4c0-2.209139 1.790861-4 4-4h40c2.209139 0 4 1.790861 4 4v40l-12 12h-32c-2.209139 0-4-1.790861-4-4z" fill="#ffe0b2"/><path id="Shape" d="m49 0h-3c2.209139 0 4 1.790861 4 4v40l-12 12h3l12-12v-40c0-2.209139-1.790861-4-4-4z" fill="#dfc49c"/><path id="Shape" d="m41 56v-8c0-2.209139 1.790861-4 4-4h8" fill="#91562d"/><path id="Shape" d="m27.579 30.368-7.78 7.77-3.54 3.54-9.18 9.19h-.01l-3.53-3.54 20.5-20.5z" fill="#ff9801"/><path id="Shape" d="m27.579 30.368-7.78 7.77-3.54 3.54-9.18 9.19h-.01l-3.53-3.54 20.5-20.5z" fill="#ff9801"/><path id="Shape" d="m31.109 33.897-20.5 20.5-3.53-3.529 9.18-9.19 3.54-3.54 7.78-7.77z" fill="#ff5722"/><path id="Shape" d="m10.609 54.4-9.26 3.471c-.36551653.1402768-.77935769.0522113-1.05608881-.224736-.27673111-.2769473-.36447342-.6908571-.22391119-1.056264l3.47-9.259 3.53 3.54h.01z" fill="#ffe0b2"/><path id="Shape" d="m7.079 50.868h-.01l-3.53-3.54-.819 2.186 1.349 1.354h.01l.235.234c.7215282.7213804 1.02695946 1.7600202.81079043 2.7571478-.21616903.9971277-.92430118 1.8160353-1.87979043 2.1738522l-3.195 1.197c.0785894.2634854.26362897.4821875.5104618.6033255.24683282.121138.53303604.1337073.7895382.0346745l9.26-3.471z" fill="#dfc49c"/><path id="Shape" d="m33.939 31.068-2.83 2.829-3.53-3.529-3.54-3.54 2.83-2.83z" fill="#9e9e9e"/><path id="Shape" d="m36.059 28.948-2.12 2.12-7.07-7.068 2.12-2.12c1.1712702-1.1698135 3.0687298-1.1698135 4.24 0l2.83 2.829c1.1691478 1.1711552 1.1691478 3.0678448 0 4.239z" fill="#e91e63"/><path id="Shape" d="m36.059 24.707-2.83-2.829c-.9619614-.9575732-2.4479988-1.1476382-3.62-.463.2263367.1260753.4348425.281782.62.463l2.83 2.829c1.1704795 1.171385 1.1704795 3.069615 0 4.241l-.62.62 1.5 1.5 2.12-2.12c1.1704795-1.171385 1.1704795-3.069615 0-4.241z" fill="#ad1457"/></g><g id="Layer_2" fill="#000"><path id="Shape" d="m50 38c-.5522847 0-1 .4477153-1 1v2c0 .5522847.4477153 1 1 1s1-.4477153 1-1v-2c0-.5522847-.4477153-1-1-1z"/><path id="Shape" d="m50 0h-40c-2.76005315.00330612-4.99669388 2.23994685-5 5v36c0 .5522847.44771525 1 1 1s1-.4477153 1-1v-36c0-1.65685425 1.34314575-3 3-3h40c1.6568542 0 3 1.34314575 3 3v39h-7c-2.7600532.0033061-4.9966939 2.2399468-5 5v7h-24c-.5522847 0-1 .4477153-1 1s.4477153 1 1 1h25c.2651948-.0000566.5195073-.1054506.707-.293l12-12c.1875494-.1874927.2929434-.4418052.293-.707v-40c-.0033061-2.76005315-2.2399468-4.99669388-5-5zm-4 46h5.586l-8.586 8.586v-5.586c0-1.6568542 1.3431458-3 3-3z"/><path id="Shape" d="m12 8h2c.5522847 0 1-.44771525 1-1s-.4477153-1-1-1h-2c-.5522847 0-1 .44771525-1 1s.4477153 1 1 1z"/><path id="Shape" d="m48 6h-30c-.5522847 0-1 .44771525-1 1s.4477153 1 1 1h30c.5522847 0 1-.44771525 1-1s-.4477153-1-1-1z"/><path id="Shape" d="m12 14h2c.5522847 0 1-.4477153 1-1s-.4477153-1-1-1h-2c-.5522847 0-1 .4477153-1 1s.4477153 1 1 1z"/><path id="Shape" d="m18 14h23c.5522847 0 1-.4477153 1-1s-.4477153-1-1-1h-23c-.5522847 0-1 .4477153-1 1s.4477153 1 1 1z"/><path id="Shape" d="m12 20h2c.5522847 0 1-.4477153 1-1s-.4477153-1-1-1h-2c-.5522847 0-1 .4477153-1 1s.4477153 1 1 1z"/><path id="Shape" d="m18 20h6c.5522847 0 1-.4477153 1-1s-.4477153-1-1-1h-6c-.5522847 0-1 .4477153-1 1s.4477153 1 1 1z"/><path id="Shape" d="m51 21c0-.5522847-.4477153-1-1-1s-1 .4477153-1 1v14c0 .5522847.4477153 1 1 1s1-.4477153 1-1z"/><path id="Shape" d="m3.663 47.985-3.475 9.253c-.22885902.6125022-.14386393 1.2981985.22761575 1.836286.37147969.5380875.98252974.8606111 1.63638425.863714.24311256-.0003573.48421567-.0440403.712-.129l9.253-3.471v-.006c.1341323-.0474104.2563064-.1235132.358-.223l20.504-20.503 2.828-2.828 2.121-2.121c.7501901-.7501514 1.1716458-1.7675983 1.1716458-2.8285s-.4214557-2.0783486-1.1716458-2.8285l-2.828-2.828c-.7501514-.7501901-1.7675983-1.1716458-2.8285-1.1716458s-2.0783486.4214557-2.8285 1.1716458l-2.121 2.121-2.828 2.829-20.506 20.505c-.10018255.1015188-.17697339.2237016-.225.358zm-1.6 9.954 2.925-7.8 4.872 4.875zm30.109-24.454-2.829-2.828-2.828-2.828 1.414-1.415 5.657 5.657zm-1.415-9.9c.7912985-.7564511 2.0377015-.7564511 2.829 0l2.828 2.828c.375248.375096.5860729.8839266.5860729 1.4145s-.2108249 1.039404-.5860729 1.4145l-1.414 1.415-5.657-5.657zm-5.657 5.658 2.121 2.121-7.071 7.071c-.2599566.2510745-.3642126.6228779-.2726972.9725073.0915155.3496295.3645604.6226744.7141899.7141899.3496294.0915154.7214328-.0127406.9725073-.2726972l7.072-7.071 2.122 2.122-19.093 19.092-2.121-2.122 8.485-8.485c.3789722-.3923789.3735524-1.0160848-.0121814-1.4018186s-1.0094397-.3911536-1.4018186-.0121814l-8.485 8.485-2.121-2.122z"/></g></g></g></svg>